<svg id="Group_2" data-name="Group 2" xmlns="http://www.w3.org/2000/svg" xmlns:xlink="http://www.w3.org/1999/xlink" width="32" height="18.889" viewBox="0 0 32 18.889">
  <defs>
    <clipPath id="clip-path">
      <rect id="Rectangle_2" data-name="Rectangle 2" width="32" height="18.889" fill="#fff"/>
    </clipPath>
  </defs>
  <g id="Group_1" data-name="Group 1" clip-path="url(#clip-path)">
    <path id="Path_14" data-name="Path 14" d="M31.989,9.163A2.3,2.3,0,0,0,31.38,7.6a3.122,3.122,0,0,0-2.372-1.053c-2.262-.012-4.524-.007-6.786,0-.873,0-1.253-.382-1.251-1.246,0-1.629,0-3.258,0-4.887V.029c-.139-.008-.24-.019-.341-.019q-8.3,0-16.592-.01a.973.973,0,0,0-.955.959c.036.579.009,1.162.007,1.743,0,.09-.013.179-.02.256a.34.34,0,0,1-.083.033c-.332,0-.665.025-1,0a.935.935,0,0,0-.922,1.252.878.878,0,0,0,.894.629c1.442,0,2.885,0,4.327,0A3.627,3.627,0,0,1,7,4.949a.66.66,0,0,1,.486.351.918.918,0,0,1-.653,1.313,3.631,3.631,0,0,1-.584.056c-.726.006-1.453,0-2.179,0-1.017,0-2.034,0-3.051,0l-.077,0H.933A.932.932,0,0,0,.627,8.484a.835.835,0,0,0,.3.063c.124.006.249,0,.373,0q3.92,0,7.84,0a2.546,2.546,0,0,1,.49.057.834.834,0,0,1,.7.7.878.878,0,0,1-.434.94,1.524,1.524,0,0,1-.72.156q-3.92,0-7.84,0a1.36,1.36,0,0,1-.155,0,1.091,1.091,0,0,0-.357.013.941.941,0,0,0,.147,1.871h.02a1.4,1.4,0,0,0,.192,0c.538-.031,1.079-.008,1.618-.006.09,0,.18.013.3.023v.356c0,.809.023,1.62-.008,2.428a.955.955,0,0,0,.946.936c.517-.034,1.037-.008,1.556-.007.091,0,.182.011.277.016a3.472,3.472,0,0,0,3.132,2.825,3.543,3.543,0,0,0,3.992-2.826h9.386a3.619,3.619,0,0,0,1.115,1.931,3.379,3.379,0,0,0,2.062.913,3.61,3.61,0,0,0,3.943-2.859h.3c.425,0,.853-.025,1.276.006A.957.957,0,0,0,32,15.108c-.02-1.982,0-3.964-.012-5.946M11.071,15.424a1.593,1.593,0,0,1-1.954,1.514A1.623,1.623,0,0,1,7.767,15,1.688,1.688,0,0,1,9.49,13.623a1.631,1.631,0,0,1,1.581,1.8m15,1.545A1.675,1.675,0,0,1,24.259,15.4a1.646,1.646,0,0,1,1.4-1.747,1.673,1.673,0,1,1,.412,3.319" transform="translate(-0.001 0)" fill="#fff"/>
    <path id="Path_15" data-name="Path 15" d="M371.046,7.907c-.075-.136-.125-.236-.183-.332-.139-.23-.275-.462-.422-.687a9.288,9.288,0,0,0-1.79-2.163,6.417,6.417,0,0,0-2.53-1.262,1.08,1.08,0,0,0-.2-.014c-.071.33-.06,4.217.011,4.458Z" transform="translate(-343.047 -3.234)" fill="#fff"/>
  </g>
</svg>
