<svg xmlns="http://www.w3.org/2000/svg" width="44" height="31.95" viewBox="0 0 44 31.95">
  <path id="local_shipping_FILL1_wght400_GRAD0_opsz48" d="M11.2,39.95a5.729,5.729,0,0,1-4.175-1.7A5.663,5.663,0,0,1,5.3,34.05H5a2.893,2.893,0,0,1-2.125-.875A2.893,2.893,0,0,1,2,31.05V11a2.878,2.878,0,0,1,.9-2.1A2.878,2.878,0,0,1,5,8H30.95a2.988,2.988,0,0,1,3,3v5.35h4.5a1.546,1.546,0,0,1,.7.15,1.29,1.29,0,0,1,.5.45L45.7,25a1.463,1.463,0,0,1,.3.9v6.65a1.454,1.454,0,0,1-1.5,1.5H42.45a5.663,5.663,0,0,1-1.725,4.2,5.977,5.977,0,0,1-8.35,0,5.663,5.663,0,0,1-1.725-4.2H17.1a5.663,5.663,0,0,1-1.725,4.2A5.729,5.729,0,0,1,11.2,39.95Zm0-3A2.9,2.9,0,1,0,9.15,32a2.9,2.9,0,0,0,2.05,4.95Zm25.35,0a2.9,2.9,0,1,0-2.05-.85A2.794,2.794,0,0,0,36.55,36.95Zm-2.6-10.2h9.3l-5.55-7.4H33.95Z" transform="translate(-2 -8)" fill="#ae2126"/>
</svg>
