<svg id="_001-facebook" data-name="001-facebook" xmlns="http://www.w3.org/2000/svg" width="45" height="45" viewBox="0 0 45 45">
  <path id="Path_16" data-name="Path 16" d="M297.277,508.668q-3.2.521-6.422.961Q294.078,509.189,297.277,508.668Zm0,0" transform="translate(-268.662 -467)" fill="#ae2126"/>
  <path id="Path_17" data-name="Path 17" d="M302.4,507.793c-1.02.188-2.039.359-3.059.535C300.359,508.152,301.379,507.98,302.4,507.793Zm0,0" transform="translate(-274.672 -467)" fill="#ae2126"/>
  <path id="Path_18" data-name="Path 18" d="M285.137,510.34q-3.744.422-7.527.742Q281.389,510.766,285.137,510.34Zm0,0" transform="translate(-256.988 -467)" fill="#ae2126"/>
  <path id="Path_19" data-name="Path 19" d="M290.055,509.738c-1.2.16-2.406.309-3.609.449C287.648,510.047,288.855,509.9,290.055,509.738Zm0,0" transform="translate(-263.124 -467)" fill="#ae2126"/>
  <path id="Path_20" data-name="Path 20" d="M309.367,506.41c-.9.191-1.8.383-2.7.566C307.566,506.793,308.469,506.6,309.367,506.41Zm0,0" transform="translate(-281.196 -467)" fill="#ae2126"/>
  <path id="Path_21" data-name="Path 21" d="M326.664,502.113c-.727.207-1.453.4-2.18.605C325.211,502.516,325.938,502.32,326.664,502.113Zm0,0" transform="translate(-297.231 -467)" fill="#ae2126"/>
  <path id="Path_22" data-name="Path 22" d="M321.434,503.543c-.789.207-1.582.418-2.375.617Q320.248,503.861,321.434,503.543Zm0,0" transform="translate(-292.373 -467)" fill="#ae2126"/>
  <path id="Path_23" data-name="Path 23" d="M314.59,505.254c-.836.2-1.68.379-2.523.566C312.91,505.633,313.754,505.449,314.59,505.254Zm0,0" transform="translate(-286.049 -467)" fill="#ae2126"/>
  <path id="Path_24" data-name="Path 24" d="M277.527,511.09q-2.021.17-4.047.3Q275.508,511.26,277.527,511.09Zm0,0" transform="translate(-251.431 -467)" fill="#ae2126"/>
  <path id="Path_25" data-name="Path 25" d="M45,22.5A22.5,22.5,0,1,0,22.5,45c.132,0,.264,0,.4-.005V27.48H18.062V21.846H22.9V17.7c0-4.808,2.935-7.425,7.224-7.425a39.792,39.792,0,0,1,4.334.221v5.025H31.5c-2.333,0-2.785,1.109-2.785,2.736v3.588H34.29l-.727,5.634H28.711V44.131A22.512,22.512,0,0,0,45,22.5Zm0,0" fill="#ae2126"/>
  <path id="Path_26" data-name="Path 26" d="M272.914,511.43q-4,.258-8.023.4Q268.916,511.693,272.914,511.43Zm0,0" transform="translate(-245.456 -467)" fill="#ae2126"/>
  <path id="Path_27" data-name="Path 27" d="M264.754,511.836q-2.121.07-4.25.105Q262.631,511.906,264.754,511.836Zm0,0" transform="translate(-239.597 -467)" fill="#ae2126"/>
</svg>
