<svg id="Layer_1" data-name="Layer 1" xmlns="http://www.w3.org/2000/svg" xmlns:xlink="http://www.w3.org/1999/xlink" viewBox="0 0 16.61 12.06"><defs><style>.cls-1,.cls-3,.cls-5{fill:none;}.cls-2{clip-path:url(#clip-path);}.cls-3{stroke:#000;}.cls-3,.cls-5{stroke-miterlimit:10;}.cls-4{fill:#e63429;}.cls-5{stroke:#e63429;}</style><clipPath id="clip-path" transform="translate(-558.19 -276.97)"><rect class="cls-1" x="558.19" y="276.97" width="16.61" height="12.06"/></clipPath></defs><g class="cls-2"><path d="M559,278.12h8.1a.32.32,0,0,0,.33-.32.33.33,0,0,0-.33-.33H559a.33.33,0,0,0-.33.33.32.32,0,0,0,.33.32" transform="translate(-558.19 -276.97)"/><path class="cls-3" d="M559,278.12h8.1a.32.32,0,0,0,.33-.32.33.33,0,0,0-.33-.33H559a.33.33,0,0,0-.33.33A.32.32,0,0,0,559,278.12Z" transform="translate(-558.19 -276.97)"/><path d="M574,287.88H559a.32.32,0,0,0-.33.32.33.33,0,0,0,.33.33h15a.32.32,0,0,0,.32-.33.32.32,0,0,0-.32-.32" transform="translate(-558.19 -276.97)"/><path class="cls-3" d="M574,287.88H559a.32.32,0,0,0-.33.32.33.33,0,0,0,.33.33h15a.32.32,0,0,0,.32-.33A.32.32,0,0,0,574,287.88Z" transform="translate(-558.19 -276.97)"/><path d="M574,282.68H559a.32.32,0,0,0-.33.32.33.33,0,0,0,.33.33h15a.32.32,0,0,0,.32-.33.32.32,0,0,0-.32-.32" transform="translate(-558.19 -276.97)"/><path class="cls-3" d="M574,282.68H559a.32.32,0,0,0-.33.32.33.33,0,0,0,.33.33h15a.32.32,0,0,0,.32-.33A.32.32,0,0,0,574,282.68Z" transform="translate(-558.19 -276.97)"/><path class="cls-4" d="M569.9,278.13H574a.33.33,0,0,0,.33-.33.32.32,0,0,0-.33-.32H569.9a.32.32,0,0,0-.33.32.33.33,0,0,0,.33.33" transform="translate(-558.19 -276.97)"/><path class="cls-5" d="M569.9,278.13H574a.33.33,0,0,0,.33-.33.32.32,0,0,0-.33-.32H569.9a.32.32,0,0,0-.33.32A.33.33,0,0,0,569.9,278.13Z" transform="translate(-558.19 -276.97)"/></g></svg>