<svg width="292" height="292" viewBox="0 0 292 292" fill="none" xmlns="http://www.w3.org/2000/svg">
<path d="M213.793 135.453L110.668 72.7578C101.41 67.6016 89.75 74.2227 89.75 85.0625V206.938C89.75 217.719 101.352 224.398 110.668 219.242L213.793 160.062C223.402 154.73 223.402 140.844 213.793 135.453ZM291.312 146C291.312 65.7266 226.273 0.6875 146 0.6875C65.7266 0.6875 0.6875 65.7266 0.6875 146C0.6875 226.273 65.7266 291.312 146 291.312C226.273 291.312 291.312 226.273 291.312 146ZM28.8125 146C28.8125 81.2539 81.2539 28.8125 146 28.8125C210.746 28.8125 263.188 81.2539 263.188 146C263.188 210.746 210.746 263.188 146 263.188C81.2539 263.188 28.8125 210.746 28.8125 146Z" fill="#D7D7D7"/>
</svg>
