<?xml version="1.0" encoding="utf-8"?>
<!-- Generator: Adobe Illustrator 24.1.0, SVG Export Plug-In . SVG Version: 6.00 Build 0)  -->
<svg version="1.1" id="Layer_1" xmlns="http://www.w3.org/2000/svg" xmlns:xlink="http://www.w3.org/1999/xlink" x="0px" y="0px"
	 viewBox="0 0 76 16.9" style="enable-background:new 0 0 76 16.9;" xml:space="preserve">
<path d="M0.1,0.2v16.5h7c3,0,5.2-1.5,5.2-4.7c0-2.2-1.1-3.5-2.6-3.9c1.1-0.5,1.8-1.7,1.8-3.4c0-3-2.1-4.5-5-4.5H0.1z M2.7,2.5h3.6
	c1.6,0,2.6,0.8,2.6,2.3c0,1.6-0.9,2.3-2.3,2.3H2.7V2.5z M2.7,9.4h4.2c1.4,0,2.7,0.7,2.7,2.5c0,1.8-1.2,2.5-2.8,2.5H2.7V9.4z
	 M36,16.7L29,0.2h-2.2l-7,16.5h2.9l1.5-3.7h7.3l1.5,3.7H36z M25.2,10.7l2.7-6.4l2.7,6.4H25.2z M49.8,0c-3.8,0-5.7,2.2-5.7,4.8
	c0,3.1,2.4,4,5.4,4.7c2.5,0.6,3.9,1,3.9,2.7c0,1.7-1.4,2.4-3.3,2.4c-2.1,0-3.6-1.1-3.7-2.9l-2.7,0.2c0.1,3.2,2.8,5,6.4,5
	c3.3,0,5.9-1.5,5.9-4.9c0-2.9-2.2-3.9-5.6-4.7c-2.4-0.6-3.7-0.9-3.7-2.6c0-1.4,1.1-2.5,3.1-2.5c1.8,0,3.1,1,3.1,2.7l2.7-0.2
	C55.5,1.8,53.1,0,49.8,0z M75.9,2.5V0.2H65.5v16.5h10.3v-2.3h-7.7v-5h6.8V7.1h-6.8V2.5H75.9z"/>
</svg>
