<?xml version="1.0" encoding="UTF-8"?>
<svg width="24px" height="24px" viewBox="0 0 24 24" version="1.1" xmlns="http://www.w3.org/2000/svg" xmlns:xlink="http://www.w3.org/1999/xlink">
    <title>Fill 2</title>
    <g id="Desktop" stroke="none" stroke-width="1" fill="none" fill-rule="evenodd">
        <g id="Hell-Bunny_Cart" transform="translate(-449.000000, -575.000000)" fill="#000000">
            <g id="Fill-2" transform="translate(449.000000, 575.000000)">
                <path d="M7.15115398,12.48543 L16.847634,12.48543 L16.847634,11.51457 L7.15115398,11.51457 L7.15115398,12.48543 Z M11.999394,0.970860058 C5.91848897,0.970860058 0.970860058,5.91848897 0.970860058,12.000606 C0.970860058,18.081511 5.91848897,23.0291399 11.999394,23.0291399 C18.081511,23.0291399 23.0291399,18.081511 23.0291399,12.000606 C23.0291399,5.91848897 18.081511,0.970860058 11.999394,0.970860058 L11.999394,0.970860058 Z M11.999394,24 C5.38275845,24 0,18.6172416 0,12.000606 C0,5.38397051 5.38275845,0 11.999394,0 C18.6160295,0 24,5.38397051 24,12.000606 C24,18.6172416 18.6160295,24 11.999394,24 L11.999394,24 Z" id="Fill-1"></path>
            </g>
        </g>
    </g>
</svg>