<svg id="Mail" xmlns="http://www.w3.org/2000/svg" xmlns:xlink="http://www.w3.org/1999/xlink" viewBox="0 0 30.22 13.73"><defs><style>.cls-1{fill:none;}.cls-2{clip-path:url(#clip-path);}.cls-3{fill:#fff;}</style><clipPath id="clip-path" transform="translate(-316.45 -282.8)"><rect class="cls-1" x="316.45" y="282.8" width="30.22" height="13.73"/></clipPath></defs><g class="cls-2"><path class="cls-3" d="M325,288.14a.68.68,0,0,0-.68-.68h-6.07a.68.68,0,0,0,0,1.36h6.07a.68.68,0,0,0,.68-.68" transform="translate(-316.45 -282.8)"/><path class="cls-3" d="M324.75,285.13a.69.69,0,0,0-.68-.68h-6.95a.68.68,0,0,0,0,1.36h6.95a.69.69,0,0,0,.68-.68" transform="translate(-316.45 -282.8)"/><path class="cls-3" d="M324.66,290.45h-4.31a.68.68,0,1,0,0,1.35h4.31a.68.68,0,1,0,0-1.35" transform="translate(-316.45 -282.8)"/><path class="cls-3" d="M345.43,294.66,340.82,290l4.63-5Zm-17,.67,4.58-4.78,3,2.74a.85.85,0,0,0,1.17,0l3-2.74,4.5,4.78Zm-.87-.92,0-9.63,4.64,5Zm17.17-10.2-7.53,7.5a.83.83,0,0,1-.63.25.8.8,0,0,1-.62-.27l-7.17-7.48Zm.11-1.41H328.16a1.85,1.85,0,0,0-1.84,1.84v10a1.85,1.85,0,0,0,1.84,1.84h16.66a1.85,1.85,0,0,0,1.84-1.84v-10a1.85,1.85,0,0,0-1.84-1.84" transform="translate(-316.45 -282.8)"/></g></svg>