<svg xmlns="http://www.w3.org/2000/svg" width="40.1" height="40.05" viewBox="0 0 40.1 40.05">
  <path id="sell_FILL1_wght400_GRAD0_opsz48" d="M27.95,43.15a3.078,3.078,0,0,1-4.35,0L4.85,24.4a2.624,2.624,0,0,1-.675-1.05A3.77,3.77,0,0,1,4,22.2V7A2.907,2.907,0,0,1,7,4H22.2a4.267,4.267,0,0,1,1.2.175,2.568,2.568,0,0,1,1.1.675L43.15,23.5a3.081,3.081,0,0,1,0,4.45ZM12.25,14.8a2.581,2.581,0,0,0,1.825-4.425,2.581,2.581,0,1,0-3.65,3.65,2.5,2.5,0,0,0,1.825.775Z" transform="translate(-4 -4)" fill="#ae2126"/>
</svg>
