<svg xmlns="http://www.w3.org/2000/svg" xmlns:xlink="http://www.w3.org/1999/xlink" width="29" height="29" viewBox="0 0 29 29">
  <defs>
    <clipPath id="clip-path">
      <rect id="Rectangle_21" data-name="Rectangle 21" width="29" height="29" transform="translate(1739 76)" fill="#fff" stroke="#707070" stroke-width="1"/>
    </clipPath>
  </defs>
  <g id="Mask_Group_11" data-name="Mask Group 11" transform="translate(-1739 -76)" clip-path="url(#clip-path)">
    <path id="search_FILL1_wght400_GRAD0_opsz40" d="M31.5,33.43l-9.64-9.639a9.5,9.5,0,0,1-2.871,1.619,10.021,10.021,0,0,1-3.446.6A10.262,10.262,0,0,1,8,22.93a10.166,10.166,0,0,1-3.076-7.466A10.233,10.233,0,0,1,8,7.978a10.179,10.179,0,0,1,7.506-3.1,10.13,10.13,0,0,1,7.465,3.1,10.233,10.233,0,0,1,3.076,7.486,10.062,10.062,0,0,1-.574,3.385,10.408,10.408,0,0,1-1.681,3.014l9.721,9.64a1.321,1.321,0,0,1,.41.964,1.263,1.263,0,0,1-.451.964,1.367,1.367,0,0,1-1.005.411A1.235,1.235,0,0,1,31.5,33.43Zm-16-10.172A7.774,7.774,0,0,0,23.3,15.464a7.582,7.582,0,0,0-2.277-5.538,7.479,7.479,0,0,0-5.517-2.3,7.529,7.529,0,0,0-5.558,2.3,7.584,7.584,0,0,0-2.276,5.538,7.513,7.513,0,0,0,2.276,5.517A7.562,7.562,0,0,0,15.505,23.258Z" transform="translate(1734.078 71.139)"/>
  </g>
</svg>
