<svg xmlns="http://www.w3.org/2000/svg" width="45" height="45" viewBox="0 0 45 45">
  <path id="_013-twitter-1" data-name="013-twitter-1" d="M22.5,0A22.5,22.5,0,1,0,45,22.5,22.5,22.5,0,0,0,22.5,0ZM32.773,17.543q.015.332.015.667A14.594,14.594,0,0,1,18.094,32.9h0a14.618,14.618,0,0,1-7.916-2.32,10.5,10.5,0,0,0,1.232.071,10.362,10.362,0,0,0,6.414-2.211A5.17,5.17,0,0,1,13,24.858a5.147,5.147,0,0,0,2.333-.089,5.166,5.166,0,0,1-4.143-5.062c0-.023,0-.044,0-.066a5.129,5.129,0,0,0,2.339.646,5.169,5.169,0,0,1-1.6-6.895,14.662,14.662,0,0,0,10.645,5.4,5.167,5.167,0,0,1,8.8-4.71,10.358,10.358,0,0,0,3.279-1.253,5.185,5.185,0,0,1-2.271,2.856,10.3,10.3,0,0,0,2.966-.813A10.5,10.5,0,0,1,32.773,17.543Zm0,0" fill="#ae2126"/>
</svg>
