<svg id="_008-youtube" data-name="008-youtube" xmlns="http://www.w3.org/2000/svg" width="45" height="45" viewBox="0 0 45 45">
  <path id="Path_31" data-name="Path 31" d="M224.113,216.47l7.319-4.215-7.319-4.215Zm0,0" transform="translate(-204.416 -189.754)" fill="#ae2126"/>
  <path id="Path_32" data-name="Path 32" d="M22.5,0A22.5,22.5,0,1,0,45,22.5,22.5,22.5,0,0,0,22.5,0ZM36.559,22.523a37.136,37.136,0,0,1-.579,6.763A3.523,3.523,0,0,1,33.5,31.765c-2.2.579-11,.579-11,.579s-8.778,0-11-.6A3.524,3.524,0,0,1,9.02,29.263,36.972,36.972,0,0,1,8.441,22.5a37.111,37.111,0,0,1,.579-6.763,3.6,3.6,0,0,1,2.478-2.5c2.2-.579,11-.579,11-.579s8.8,0,11,.6a3.524,3.524,0,0,1,2.478,2.478A35.241,35.241,0,0,1,36.559,22.523Zm0,0" fill="#ae2126"/>
</svg>
